<svg version="1.2" xmlns="http://www.w3.org/2000/svg" viewBox="0 0 720 720" width="720" height="720"><style>.a{fill:none;stroke:#191919;stroke-miterlimit:100;stroke-width:31}.b{fill:#191919}.c{fill:#fff}</style><path class="a" d="m360.3 697c-186 0-336.3-150.3-336.3-336.3 0-185.9 150.3-336.2 336.3-336.2 185.9 0 336.2 150.3 336.2 336.3 0 185.9-150.3 336.2-336.3 336.2z"/><path class="b" d="m360 653c-162 0-293-131-293-293 0-162 131-293 293-293 162 0 293 131 293 293 0 162-131 293-293 293z"/><path class="c" d="m565.2 431q0 40.5-19.9 69.6-19.2 29.1-58.2 51.1-15.6 9.2-73.8 37.6-65.4 32-71 32-0.8 0-44.8-35.5-24.8-19.9-46.8-28.4-21.3-8.5-47.6-14.9-25.6-7.1-49-7.1v-10.7q29.8-22 54-44.7 28.4-27 38.3-27 31.2 0 80.9 22 36.3 15.6 52.6 27.7 16.3 12.1 30.5 29.8 9.2 11.4 16.3 11.4 10 0 17.1-12.1 7.1-12.8 7.1-29.1 0-41.2-66.8-78.1-62.4-32.6-124.9-65.3-68.2-44-68.2-100.8 0-28.4 16.4-52.6 22.7-34 75.2-56.1 122.1-51.8 133.5-51.8 2.1 0 34.1 35.5 17 19.2 34.1 31.3 9.2 7.1 24.1 13.4 41.9 18.5 43.3 19.2-6.4 6.4-44 25.6-12.8 6.4-37.6 18.4-9.3-2.1-15.7-3.5-36.9-10-61.7-22.7-30.6-17.1-47.6-49-6.4-11.4-14.2-11.4-9.9 0-20.6 12.1-12.8 14.9-12.8 34.8 0 15.6 81.7 55.4 47.5 23.4 75.2 39.7 61.8 36.9 80.3 56.1 30.5 31.2 30.5 78.1z"/></svg>